# xmcd
#
# Track frame offsets:
#	150
#	42403
#	55841
#	72069
#	81718
#	96821
#	122685
#	132113
#	149891
#	165889
#	179318
#
# Disc length: 2479 seconds
# Revision: 0
# Processed by: cddbd v1.5.2PL0 Copyright (c) Steve Scherf et al.
# Submitted via: dBpowerAMP V12.0
#
DISCID=9b09ad0b
DTITLE=Los planetas - Pop
DYEAR=1996
DGENRE=Rock
TTITLE0=DB
TTITLE1=Una nueva prensa musical
TTITLE2=Jose y yo
TTITLE3=Himno generacional #83
TTITLE4=Ciudad azul
TTITLE5=La máquina de escribir
TTITLE6=David y Claudia
TTITLE7=8
TTITLE8=Aeropuerto
TTITLE9=Ondas del espacio exterior
TTITLE10=Punk
EXTD=
EXTT0=
EXTT1=
EXTT2=
EXTT3=
EXTT4=
EXTT5=
EXTT6=
EXTT7=
EXTT8=
EXTT9=
EXTT10=
PLAYORDER=
